<mxfile host="app.diagrams.net" modified="2020-12-27T22:00:32.873Z" agent="5.0 (Windows NT 10.0; Win64; x64) AppleWebKit/537.36 (KHTML, like Gecko) Chrome/87.0.4280.88 Safari/537.36" etag="mU5xmxQWHIgAMtWd0qr4" version="14.0.1" type="github" pages="2">
  <diagram name="High Level Class diagram" id="c4acf3e9-155e-7222-9cf6-157b1a14988f">
    <mxGraphModel dx="1264" dy="543" grid="1" gridSize="10" guides="1" tooltips="1" connect="1" arrows="1" fold="1" page="1" pageScale="1" pageWidth="1169" pageHeight="827" background="#ffffff" math="0" shadow="0">
      <root>
        <mxCell id="0" />
        <mxCell id="1" parent="0" />
        <mxCell id="w6KaE84ydswYFog2qIjZ-9" value="" style="endArrow=diamondThin;endFill=1;endSize=24;html=1;" parent="1" source="17acba5748e5396b-20" target="w6KaE84ydswYFog2qIjZ-1" edge="1">
          <mxGeometry width="160" relative="1" as="geometry">
            <mxPoint x="690" y="547" as="sourcePoint" />
            <mxPoint x="850" y="547" as="targetPoint" />
          </mxGeometry>
        </mxCell>
        <mxCell id="YEwZni0s32fwcX4SPt7t-5" value="1" style="endArrow=open;html=1;endSize=12;startArrow=diamondThin;startSize=14;startFill=1;edgeStyle=orthogonalEdgeStyle;align=left;verticalAlign=bottom;exitX=0.5;exitY=1;exitDx=0;exitDy=0;" parent="1" source="w6KaE84ydswYFog2qIjZ-1" target="YEwZni0s32fwcX4SPt7t-1" edge="1">
          <mxGeometry x="-0.6966" y="31" relative="1" as="geometry">
            <mxPoint x="470.0344827586207" y="260.0000000000001" as="sourcePoint" />
            <mxPoint x="610" y="327" as="targetPoint" />
            <Array as="points" />
            <mxPoint x="-11" y="-24" as="offset" />
          </mxGeometry>
        </mxCell>
        <mxCell id="YEwZni0s32fwcX4SPt7t-26" value="Extends" style="endArrow=block;endSize=16;endFill=0;html=1;exitX=0.75;exitY=0;exitDx=0;exitDy=0;" parent="1" source="YEwZni0s32fwcX4SPt7t-21" target="YEwZni0s32fwcX4SPt7t-1" edge="1">
          <mxGeometry width="160" relative="1" as="geometry">
            <mxPoint x="830" y="760" as="sourcePoint" />
            <mxPoint x="990" y="760" as="targetPoint" />
          </mxGeometry>
        </mxCell>
        <mxCell id="YEwZni0s32fwcX4SPt7t-27" value="Extends" style="endArrow=block;endSize=16;endFill=0;html=1;" parent="1" source="YEwZni0s32fwcX4SPt7t-17" target="YEwZni0s32fwcX4SPt7t-1" edge="1">
          <mxGeometry width="160" relative="1" as="geometry">
            <mxPoint x="345" y="753" as="sourcePoint" />
            <mxPoint x="472" y="563" as="targetPoint" />
          </mxGeometry>
        </mxCell>
        <mxCell id="YEwZni0s32fwcX4SPt7t-28" value="Extends" style="endArrow=block;endSize=16;endFill=0;html=1;" parent="1" source="YEwZni0s32fwcX4SPt7t-13" target="YEwZni0s32fwcX4SPt7t-1" edge="1">
          <mxGeometry width="160" relative="1" as="geometry">
            <mxPoint x="630" y="732" as="sourcePoint" />
            <mxPoint x="630" y="643" as="targetPoint" />
          </mxGeometry>
        </mxCell>
        <mxCell id="YEwZni0s32fwcX4SPt7t-1" value="PlayList" style="swimlane;fontStyle=0;childLayout=stackLayout;horizontal=1;startSize=26;fillColor=none;horizontalStack=0;resizeParent=1;resizeParentMax=0;resizeLast=0;collapsible=1;marginBottom=0;" parent="1" vertex="1">
          <mxGeometry x="400" y="550" width="140" height="52" as="geometry" />
        </mxCell>
        <mxCell id="YEwZni0s32fwcX4SPt7t-7" value="Track" style="swimlane;fontStyle=0;childLayout=stackLayout;horizontal=1;startSize=26;fillColor=none;horizontalStack=0;resizeParent=1;resizeParentMax=0;resizeLast=0;collapsible=1;marginBottom=0;" parent="1" vertex="1">
          <mxGeometry x="700" y="550" width="140" height="52" as="geometry" />
        </mxCell>
        <mxCell id="YEwZni0s32fwcX4SPt7t-21" value="Default" style="swimlane;fontStyle=0;childLayout=stackLayout;horizontal=1;startSize=26;fillColor=none;horizontalStack=0;resizeParent=1;resizeParentMax=0;resizeLast=0;collapsible=1;marginBottom=0;" parent="1" vertex="1">
          <mxGeometry x="230" y="743" width="140" height="52" as="geometry" />
        </mxCell>
        <mxCell id="YEwZni0s32fwcX4SPt7t-17" value="UserDefinedList" style="swimlane;fontStyle=0;childLayout=stackLayout;horizontal=1;startSize=26;fillColor=none;horizontalStack=0;resizeParent=1;resizeParentMax=0;resizeLast=0;collapsible=1;marginBottom=0;" parent="1" vertex="1">
          <mxGeometry x="400" y="743" width="140" height="52" as="geometry" />
        </mxCell>
        <mxCell id="YEwZni0s32fwcX4SPt7t-13" value="RandomList" style="swimlane;fontStyle=0;childLayout=stackLayout;horizontal=1;startSize=26;fillColor=none;horizontalStack=0;resizeParent=1;resizeParentMax=0;resizeLast=0;collapsible=1;marginBottom=0;" parent="1" vertex="1">
          <mxGeometry x="570" y="743" width="140" height="52" as="geometry" />
        </mxCell>
        <mxCell id="73GwHGoKR-SjG1pQauI_-10" value="1" style="endArrow=open;html=1;endSize=12;startArrow=diamondThin;startSize=14;startFill=1;edgeStyle=orthogonalEdgeStyle;align=left;verticalAlign=bottom;exitX=0.5;exitY=1;exitDx=0;exitDy=0;" parent="1" source="73GwHGoKR-SjG1pQauI_-1" target="YEwZni0s32fwcX4SPt7t-7" edge="1">
          <mxGeometry x="-0.6216" y="10" relative="1" as="geometry">
            <mxPoint x="750" y="420" as="sourcePoint" />
            <mxPoint x="910" y="420" as="targetPoint" />
            <mxPoint as="offset" />
          </mxGeometry>
        </mxCell>
        <mxCell id="73GwHGoKR-SjG1pQauI_-1" value="Album" style="swimlane;fontStyle=0;childLayout=stackLayout;horizontal=1;startSize=26;fillColor=none;horizontalStack=0;resizeParent=1;resizeParentMax=0;resizeLast=0;collapsible=1;marginBottom=0;" parent="1" vertex="1">
          <mxGeometry x="700" y="350" width="140" height="52" as="geometry" />
        </mxCell>
        <mxCell id="73GwHGoKR-SjG1pQauI_-5" value="Artist" style="swimlane;fontStyle=0;childLayout=stackLayout;horizontal=1;startSize=26;fillColor=none;horizontalStack=0;resizeParent=1;resizeParentMax=0;resizeLast=0;collapsible=1;marginBottom=0;" parent="1" vertex="1">
          <mxGeometry x="950" y="350" width="140" height="52" as="geometry" />
        </mxCell>
        <mxCell id="73GwHGoKR-SjG1pQauI_-14" value="" style="endArrow=diamondThin;endFill=1;endSize=24;html=1;" parent="1" source="YEwZni0s32fwcX4SPt7t-7" target="YEwZni0s32fwcX4SPt7t-1" edge="1">
          <mxGeometry width="160" relative="1" as="geometry">
            <mxPoint x="700" y="601.5" as="sourcePoint" />
            <mxPoint x="540" y="601.5" as="targetPoint" />
          </mxGeometry>
        </mxCell>
        <mxCell id="73GwHGoKR-SjG1pQauI_-17" value="" style="endArrow=block;startArrow=block;endFill=1;startFill=1;html=1;" parent="1" target="73GwHGoKR-SjG1pQauI_-5" edge="1">
          <mxGeometry width="160" relative="1" as="geometry">
            <mxPoint x="840" y="376" as="sourcePoint" />
            <mxPoint x="980" y="375.76" as="targetPoint" />
          </mxGeometry>
        </mxCell>
        <mxCell id="17acba5748e5396b-20" value="User" style="swimlane;html=1;fontStyle=0;childLayout=stackLayout;horizontal=1;startSize=26;fillColor=none;horizontalStack=0;resizeParent=1;resizeLast=0;collapsible=1;marginBottom=0;swimlaneFillColor=#ffffff;rounded=0;shadow=0;comic=0;labelBackgroundColor=none;strokeWidth=1;fontFamily=Verdana;fontSize=10;align=center;" parent="1" vertex="1">
          <mxGeometry x="390" y="230" width="160" height="60" as="geometry" />
        </mxCell>
        <mxCell id="w6KaE84ydswYFog2qIjZ-1" value="Subscription" style="swimlane;fontStyle=0;childLayout=stackLayout;horizontal=1;startSize=26;fillColor=none;horizontalStack=0;resizeParent=1;resizeParentMax=0;resizeLast=0;collapsible=1;marginBottom=0;" parent="1" vertex="1">
          <mxGeometry x="400" y="390" width="140" height="52" as="geometry" />
        </mxCell>
      </root>
    </mxGraphModel>
  </diagram>
  <diagram id="58EFx40001dlk8-B3ggS" name="Use Cases">
    <mxGraphModel dx="1264" dy="543" grid="1" gridSize="10" guides="1" tooltips="1" connect="1" arrows="1" fold="1" page="1" pageScale="1" pageWidth="827" pageHeight="1169" math="0" shadow="0">
      <root>
        <mxCell id="v1AoK43_icUOv3uulWV5-0" />
        <mxCell id="v1AoK43_icUOv3uulWV5-1" parent="v1AoK43_icUOv3uulWV5-0" />
        <mxCell id="v1AoK43_icUOv3uulWV5-4" value="Profile Module" style="shape=umlFrame;whiteSpace=wrap;html=1;" parent="v1AoK43_icUOv3uulWV5-1" vertex="1">
          <mxGeometry x="140" y="50" width="450" height="410" as="geometry" />
        </mxCell>
        <mxCell id="v1AoK43_icUOv3uulWV5-2" value="User" style="shape=umlActor;verticalLabelPosition=bottom;verticalAlign=top;html=1;" parent="v1AoK43_icUOv3uulWV5-1" vertex="1">
          <mxGeometry x="70" y="155" width="30" height="60" as="geometry" />
        </mxCell>
        <mxCell id="v1AoK43_icUOv3uulWV5-3" value="Create subscription" style="ellipse;whiteSpace=wrap;html=1;" parent="v1AoK43_icUOv3uulWV5-1" vertex="1">
          <mxGeometry x="280" y="180" width="140" height="70" as="geometry" />
        </mxCell>
        <mxCell id="v1AoK43_icUOv3uulWV5-5" value="Create User" style="ellipse;whiteSpace=wrap;html=1;" parent="v1AoK43_icUOv3uulWV5-1" vertex="1">
          <mxGeometry x="280" y="75" width="140" height="70" as="geometry" />
        </mxCell>
        <mxCell id="v1AoK43_icUOv3uulWV5-6" value="3rd Party Account (Google, FB)" style="shape=umlActor;verticalLabelPosition=bottom;verticalAlign=top;html=1;" parent="v1AoK43_icUOv3uulWV5-1" vertex="1">
          <mxGeometry x="680" y="85" width="30" height="60" as="geometry" />
        </mxCell>
        <mxCell id="v1AoK43_icUOv3uulWV5-11" value="" style="endArrow=classic;html=1;exitX=0.5;exitY=0.5;exitDx=0;exitDy=0;exitPerimeter=0;" parent="v1AoK43_icUOv3uulWV5-1" source="v1AoK43_icUOv3uulWV5-2" target="v1AoK43_icUOv3uulWV5-5" edge="1">
          <mxGeometry width="50" height="50" relative="1" as="geometry">
            <mxPoint x="100" y="190" as="sourcePoint" />
            <mxPoint x="150" y="140" as="targetPoint" />
          </mxGeometry>
        </mxCell>
        <mxCell id="v1AoK43_icUOv3uulWV5-14" value="" style="endArrow=classic;html=1;exitX=0.5;exitY=0.5;exitDx=0;exitDy=0;exitPerimeter=0;" parent="v1AoK43_icUOv3uulWV5-1" source="v1AoK43_icUOv3uulWV5-2" target="v1AoK43_icUOv3uulWV5-3" edge="1">
          <mxGeometry width="50" height="50" relative="1" as="geometry">
            <mxPoint x="390" y="310" as="sourcePoint" />
            <mxPoint x="440" y="260" as="targetPoint" />
          </mxGeometry>
        </mxCell>
        <mxCell id="v1AoK43_icUOv3uulWV5-15" value="" style="endArrow=classic;html=1;exitX=0.5;exitY=0.5;exitDx=0;exitDy=0;exitPerimeter=0;" parent="v1AoK43_icUOv3uulWV5-1" source="v1AoK43_icUOv3uulWV5-6" target="v1AoK43_icUOv3uulWV5-5" edge="1">
          <mxGeometry width="50" height="50" relative="1" as="geometry">
            <mxPoint x="390" y="310" as="sourcePoint" />
            <mxPoint x="440" y="260" as="targetPoint" />
          </mxGeometry>
        </mxCell>
        <mxCell id="v1AoK43_icUOv3uulWV5-16" value="Add existing users to subscription" style="ellipse;whiteSpace=wrap;html=1;" parent="v1AoK43_icUOv3uulWV5-1" vertex="1">
          <mxGeometry x="280" y="270" width="140" height="70" as="geometry" />
        </mxCell>
        <mxCell id="v1AoK43_icUOv3uulWV5-17" value="" style="endArrow=classic;html=1;exitX=0.5;exitY=0.5;exitDx=0;exitDy=0;exitPerimeter=0;entryX=0;entryY=0.5;entryDx=0;entryDy=0;" parent="v1AoK43_icUOv3uulWV5-1" source="v1AoK43_icUOv3uulWV5-2" target="v1AoK43_icUOv3uulWV5-16" edge="1">
          <mxGeometry width="50" height="50" relative="1" as="geometry">
            <mxPoint x="83.27" y="280" as="sourcePoint" />
            <mxPoint x="279.99806907184893" y="302.27110215907726" as="targetPoint" />
          </mxGeometry>
        </mxCell>
        <mxCell id="v1AoK43_icUOv3uulWV5-18" value="Catalog Module" style="shape=umlFrame;whiteSpace=wrap;html=1;" parent="v1AoK43_icUOv3uulWV5-1" vertex="1">
          <mxGeometry x="140" y="530" width="450" height="315" as="geometry" />
        </mxCell>
        <mxCell id="v1AoK43_icUOv3uulWV5-19" value="User" style="shape=umlActor;verticalLabelPosition=bottom;verticalAlign=top;html=1;" parent="v1AoK43_icUOv3uulWV5-1" vertex="1">
          <mxGeometry x="70" y="635" width="30" height="60" as="geometry" />
        </mxCell>
        <mxCell id="v1AoK43_icUOv3uulWV5-20" value="Create Playlist" style="ellipse;whiteSpace=wrap;html=1;" parent="v1AoK43_icUOv3uulWV5-1" vertex="1">
          <mxGeometry x="280" y="660" width="140" height="70" as="geometry" />
        </mxCell>
        <mxCell id="v1AoK43_icUOv3uulWV5-21" value="Upload Album" style="ellipse;whiteSpace=wrap;html=1;" parent="v1AoK43_icUOv3uulWV5-1" vertex="1">
          <mxGeometry x="280" y="555" width="140" height="70" as="geometry" />
        </mxCell>
        <mxCell id="v1AoK43_icUOv3uulWV5-23" value="" style="endArrow=classic;html=1;exitX=0.5;exitY=0.5;exitDx=0;exitDy=0;exitPerimeter=0;" parent="v1AoK43_icUOv3uulWV5-1" source="v1AoK43_icUOv3uulWV5-19" target="v1AoK43_icUOv3uulWV5-21" edge="1">
          <mxGeometry width="50" height="50" relative="1" as="geometry">
            <mxPoint x="100" y="670" as="sourcePoint" />
            <mxPoint x="150" y="620" as="targetPoint" />
          </mxGeometry>
        </mxCell>
        <mxCell id="v1AoK43_icUOv3uulWV5-24" value="" style="endArrow=classic;html=1;exitX=0.5;exitY=0.5;exitDx=0;exitDy=0;exitPerimeter=0;" parent="v1AoK43_icUOv3uulWV5-1" source="v1AoK43_icUOv3uulWV5-19" target="v1AoK43_icUOv3uulWV5-20" edge="1">
          <mxGeometry width="50" height="50" relative="1" as="geometry">
            <mxPoint x="390" y="790" as="sourcePoint" />
            <mxPoint x="440" y="740" as="targetPoint" />
          </mxGeometry>
        </mxCell>
        <mxCell id="9zmNfIgmF2UQ1OPdu8MZ-0" value="Stream Module" style="shape=umlFrame;whiteSpace=wrap;html=1;" parent="v1AoK43_icUOv3uulWV5-1" vertex="1">
          <mxGeometry x="140" y="890" width="450" height="315" as="geometry" />
        </mxCell>
        <mxCell id="9zmNfIgmF2UQ1OPdu8MZ-1" value="User" style="shape=umlActor;verticalLabelPosition=bottom;verticalAlign=top;html=1;" parent="v1AoK43_icUOv3uulWV5-1" vertex="1">
          <mxGeometry x="70" y="995" width="30" height="60" as="geometry" />
        </mxCell>
        <mxCell id="9zmNfIgmF2UQ1OPdu8MZ-6" value="Listen Tracks" style="ellipse;whiteSpace=wrap;html=1;" parent="v1AoK43_icUOv3uulWV5-1" vertex="1">
          <mxGeometry x="290" y="990" width="140" height="70" as="geometry" />
        </mxCell>
        <mxCell id="9zmNfIgmF2UQ1OPdu8MZ-7" value="" style="endArrow=classic;html=1;exitX=0.5;exitY=0.5;exitDx=0;exitDy=0;exitPerimeter=0;entryX=0;entryY=0.5;entryDx=0;entryDy=0;" parent="v1AoK43_icUOv3uulWV5-1" source="9zmNfIgmF2UQ1OPdu8MZ-1" target="9zmNfIgmF2UQ1OPdu8MZ-6" edge="1">
          <mxGeometry width="50" height="50" relative="1" as="geometry">
            <mxPoint x="83.27" y="1120" as="sourcePoint" />
            <mxPoint x="279.99806907184893" y="1142.2711021590771" as="targetPoint" />
          </mxGeometry>
        </mxCell>
        <mxCell id="9zmNfIgmF2UQ1OPdu8MZ-8" value="Delete Album" style="ellipse;whiteSpace=wrap;html=1;" parent="v1AoK43_icUOv3uulWV5-1" vertex="1">
          <mxGeometry x="280" y="760" width="140" height="70" as="geometry" />
        </mxCell>
        <mxCell id="9zmNfIgmF2UQ1OPdu8MZ-9" value="" style="endArrow=classic;html=1;exitX=0.5;exitY=0.5;exitDx=0;exitDy=0;exitPerimeter=0;" parent="v1AoK43_icUOv3uulWV5-1" source="v1AoK43_icUOv3uulWV5-19" target="9zmNfIgmF2UQ1OPdu8MZ-8" edge="1">
          <mxGeometry width="50" height="50" relative="1" as="geometry">
            <mxPoint x="85" y="870" as="sourcePoint" />
            <mxPoint x="150" y="825" as="targetPoint" />
          </mxGeometry>
        </mxCell>
        <mxCell id="9zmNfIgmF2UQ1OPdu8MZ-10" value="List users in subscription" style="ellipse;whiteSpace=wrap;html=1;" parent="v1AoK43_icUOv3uulWV5-1" vertex="1">
          <mxGeometry x="274" y="355" width="140" height="70" as="geometry" />
        </mxCell>
        <mxCell id="9zmNfIgmF2UQ1OPdu8MZ-11" value="" style="endArrow=classic;html=1;exitX=0.6;exitY=0.7;exitDx=0;exitDy=0;exitPerimeter=0;entryX=0;entryY=0.5;entryDx=0;entryDy=0;" parent="v1AoK43_icUOv3uulWV5-1" source="v1AoK43_icUOv3uulWV5-2" target="9zmNfIgmF2UQ1OPdu8MZ-10" edge="1">
          <mxGeometry width="50" height="50" relative="1" as="geometry">
            <mxPoint x="79" y="270" as="sourcePoint" />
            <mxPoint x="273.99806907184893" y="387.27110215907726" as="targetPoint" />
          </mxGeometry>
        </mxCell>
      </root>
    </mxGraphModel>
  </diagram>
</mxfile>
